
<?xml version="1.0" encoding="UTF-8" standalone="no"?>
<!-- Created with Inkscape (http://www.inkscape.org/) -->

<svg
   width="32"
   height="32"
   viewBox="0 0 32 32"
   version="1.1"
   id="svg1"
   xml:space="preserve"
   xmlns="http://www.w3.org/2000/svg"
   xmlns:svg="http://www.w3.org/2000/svg"><defs
     id="defs1" /><g
     id="layer1"><path
       id="path1"
       style="fill:#016344;fill-opacity:1;stroke:#000000;stroke-width:0;stroke-linecap:round;stroke-linejoin:round;stroke-miterlimit:1;stroke-dasharray:none;paint-order:stroke fill markers"
       d="M 10.695312,31.054688 V 0.9453125 A 16,16 0 0 0 0,16 16,16 0 0 0 10.695312,31.054688 Z" /><path
       id="path6"
       style="fill:#c60f24;fill-opacity:1;stroke:#000000;stroke-width:0;stroke-linecap:round;stroke-linejoin:round;stroke-miterlimit:1;stroke-dasharray:none;paint-order:stroke fill markers"
       d="M 21.345703,0.92382812 21.300781,31.060547 A 16,16 0 0 0 32,16 16,16 0 0 0 21.345703,0.92382812 Z" /><path
       id="path7"
       style="fill:#ffffff;stroke:#000000;stroke-width:0;stroke-linecap:round;stroke-linejoin:round;stroke-miterlimit:1;stroke-dasharray:none;paint-order:stroke fill markers"
       d="M 16,0 A 16,16 0 0 0 10.695312,0.9453125 V 31.054688 A 16,16 0 0 0 16,32 16,16 0 0 0 21.300781,31.060547 L 21.345703,0.92382812 A 16,16 0 0 0 16,0 Z" /><text
       xml:space="preserve"
       style="font-style:normal;font-variant:normal;font-weight:normal;font-stretch:normal;font-size:6.80378px;font-family:'Mongolian Baiti';-inkscape-font-specification:'Mongolian Baiti';fill:#000000;stroke:none;stroke-width:0;stroke-linecap:round;stroke-linejoin:round;stroke-miterlimit:1;stroke-dasharray:none;paint-order:stroke fill markers"
       x="15.996677"
       y="15.996676"
       id="text10"><tspan
         id="tspan10"
         x="15.996677"
         y="15.996676"
         style="font-style:normal;font-variant:normal;font-weight:normal;font-stretch:normal;font-family:Gisshiri;-inkscape-font-specification:Gisshiri;text-align:center;writing-mode:tb-rl;text-anchor:middle;fill:#000000;stroke:none;stroke-width:0;stroke-linecap:round;stroke-linejoin:round;stroke-dasharray:none;paint-order:stroke fill markers">ドンデ</tspan></text></g></svg>
